<?xml version="1.0" standalone="no"?>
<!DOCTYPE svg PUBLIC "-//W3C//DTD SVG 20010904//EN"
 "http://www.w3.org/TR/2001/REC-SVG-20010904/DTD/svg10.dtd">
<svg version="1.0" xmlns="http://www.w3.org/2000/svg"
 width="1024.000000pt" height="603.000000pt" viewBox="0 0 1024.000000 603.000000"
 preserveAspectRatio="xMidYMid meet">

<g transform="translate(0.000000,603.000000) scale(0.100000,-0.100000)"
fill="#000000" stroke="none">
<path d="M3565 4463 c-129 -17 -361 -102 -569 -208 -140 -71 -466 -262 -466
-272 0 -3 19 6 43 20 170 100 512 261 673 318 238 84 430 109 560 74 126 -34
198 -97 341 -300 85 -120 150 -185 219 -219 67 -34 76 -33 28 2 -58 43 -115
104 -170 183 -201 292 -272 358 -426 394 -59 14 -163 17 -233 8z"/>
<path d="M5128 4453 c6 -2 18 -2 25 0 6 3 1 5 -13 5 -14 0 -19 -2 -12 -5z"/>
<path d="M5276 4435 c519 -76 1112 -319 1437 -590 l68 -56 137 -4 c75 -2 190
-11 255 -20 269 -36 746 -137 1087 -231 69 -19 163 -39 210 -45 49 -6 107 -20
137 -33 108 -50 188 -158 216 -292 9 -46 22 -71 55 -110 23 -27 57 -78 75
-113 29 -59 32 -76 37 -185 l6 -121 8 79 c17 159 -15 292 -88 369 -18 17 -33
53 -46 101 -49 193 -155 295 -350 341 -36 8 -196 46 -356 85 -523 126 -707
157 -1096 186 -117 9 -222 21 -233 27 -11 6 -112 67 -225 135 -387 234 -703
371 -997 432 -117 25 -359 60 -398 59 -16 -1 11 -7 61 -14z"/>
<path d="M5605 4265 c146 -60 295 -137 373 -192 64 -46 122 -120 122 -156 0
-11 -18 -37 -39 -58 l-39 -39 67 7 c91 11 363 8 436 -5 l60 -10 -55 50 c-191
173 -582 362 -884 427 -153 33 -165 26 -41 -24z"/>
<path d="M3625 4011 c-44 -11 -96 -26 -115 -35 -34 -15 -33 -15 50 -10 109 8
262 -9 303 -34 36 -20 54 -50 62 -103 3 -19 11 -44 18 -53 13 -17 15 -17 46
-2 41 22 66 72 57 119 -9 46 -38 83 -89 109 -59 31 -220 35 -332 9z"/>
<path d="M4770 3774 c69 -8 211 -23 315 -34 375 -41 559 -71 795 -130 352 -88
602 -201 924 -418 172 -116 168 -114 109 -46 -78 90 -139 145 -241 222 -399
297 -930 424 -1762 421 l-265 -2 125 -13z"/>
<path d="M6195 3731 l-80 -6 170 -18 c241 -26 392 -45 530 -68 583 -97 890
-188 1429 -428 175 -78 176 -77 51 42 -286 274 -755 436 -1375 476 -147 9
-610 10 -725 2z"/>
<path d="M5435 3521 c28 -15 94 -52 148 -81 54 -30 141 -89 193 -132 94 -78
95 -79 74 -39 -29 57 -72 104 -151 163 -38 28 -66 54 -63 59 9 15 149 10 232
-7 190 -39 507 -172 720 -303 113 -69 95 -49 -30 35 -250 167 -568 291 -828
323 -46 6 -143 11 -215 11 l-130 0 50 -29z"/>
<path d="M2140 3519 c-106 -12 -312 -54 -382 -78 -65 -22 -164 -74 -128 -67
688 138 1670 15 2709 -339 105 -36 192 -65 195 -65 2 0 11 19 21 43 75 190
254 350 421 377 213 34 438 -127 546 -391 l32 -80 18 34 c19 38 103 117 124
117 41 0 -10 103 -85 172 -122 113 -295 176 -507 185 -182 8 -353 -26 -495
-98 l-57 -28 -223 34 c-1086 163 -1288 185 -1764 190 -187 2 -378 -1 -425 -6z"/>
<path d="M8527 3333 c20 -27 47 -70 59 -98 l24 -50 0 44 c0 39 2 42 17 30 9
-8 29 -32 45 -54 29 -39 29 -39 22 -10 -19 79 -84 158 -145 175 -57 17 -60 12
-22 -37z"/>
<path d="M1850 3299 c-40 -18 -140 -110 -140 -129 0 -4 33 -5 74 -2 179 11
278 -78 367 -333 29 -86 36 -74 18 35 -27 169 -78 311 -136 381 -27 31 -93 69
-123 69 -8 0 -35 -10 -60 -21z"/>
<path d="M4977 3035 c-122 -34 -225 -110 -297 -220 -67 -102 -91 -181 -97
-310 -7 -133 15 -232 76 -359 37 -76 152 -245 137 -201 -31 88 -48 195 -53
320 -5 123 -3 150 16 218 77 280 290 450 565 449 l91 0 -25 20 c-97 80 -286
118 -413 83z"/>
<path d="M6220 2997 c17 -17 782 -168 1045 -206 309 -45 666 -52 900 -16 114
17 347 67 341 73 -2 2 -60 -4 -128 -13 -166 -23 -607 -31 -820 -16 -213 16
-480 51 -1033 136 -126 19 -248 38 -270 41 -22 4 -38 4 -35 1z"/>
<path d="M1775 2941 c-76 -47 -127 -130 -170 -276 -78 -272 -41 -610 84 -755
l31 -35 -19 45 c-52 121 -66 206 -65 395 0 167 2 186 28 270 47 154 130 265
235 314 l52 25 -33 18 c-43 23 -105 23 -143 -1z"/>
<path d="M8528 2853 c7 -3 16 -2 19 1 4 3 -2 6 -13 5 -11 0 -14 -3 -6 -6z"/>
<path d="M1860 2690 c-54 -54 -85 -217 -77 -405 9 -202 50 -320 113 -320 23 0
33 8 51 41 27 49 49 149 58 264 13 152 -26 363 -76 416 -27 29 -43 30 -69 4z"/>
<path d="M5197 2666 c-68 -19 -116 -62 -157 -141 -32 -61 -35 -76 -35 -149 1
-127 55 -228 149 -275 170 -84 356 59 356 274 0 195 -151 335 -313 291z"/>
<path d="M8982 2605 c0 -16 2 -22 5 -12 2 9 2 23 0 30 -3 6 -5 -1 -5 -18z"/>
<path d="M6579 2580 c102 -57 177 -124 212 -192 10 -21 24 -72 30 -115 6 -43
11 -79 12 -79 1 -1 34 4 72 12 39 7 138 14 220 14 106 1 143 4 126 11 -102 41
-175 90 -296 198 -54 49 -118 95 -160 116 -69 35 -181 65 -240 65 -28 0 -26
-2 24 -30z"/>
<path d="M8762 2589 c-45 -13 -99 -72 -151 -165 -61 -111 -106 -170 -165 -216
-28 -23 -42 -38 -31 -35 11 3 36 9 55 12 86 17 124 56 196 197 59 115 107 168
172 189 25 8 31 14 21 20 -17 11 -54 10 -97 -2z"/>
<path d="M2655 2436 c12 -6 306 -41 465 -56 485 -47 923 -122 1044 -180 l41
-20 -85 5 c-47 3 -168 10 -270 16 -324 20 -910 2 -1345 -41 -55 -5 -111 -10
-124 -10 -13 0 -21 -3 -18 -6 4 -4 314 -10 689 -15 817 -9 1041 -24 1342 -89
49 -11 91 -18 93 -16 4 3 -47 119 -111 258 -24 51 -30 57 -64 62 -105 16 -646
59 -942 76 -198 11 -730 23 -715 16z"/>
<path d="M5620 2214 c0 -53 16 -108 38 -127 17 -15 25 -15 95 -2 42 8 129 28
194 44 150 38 272 61 332 62 41 1 38 3 -24 11 -96 12 -265 2 -382 -23 -166
-36 -149 -38 -204 21 l-49 52 0 -38z"/>
</g>
</svg>
